<?xml version="1.0" encoding="iso-8859-1"?>
<!-- Generator: Adobe Illustrator 19.0.0, SVG Export Plug-In . SVG Version: 6.00 Build 0)  -->
<svg version="1.1" id="Layer_1" xmlns="http://www.w3.org/2000/svg" xmlns:xlink="http://www.w3.org/1999/xlink" x="0px" y="0px"
	 viewBox="0 0 512 512" style="enable-background:new 0 0 512 512;" xml:space="preserve">
<g>
	<g>
		<path d="M499.831,98.079l-66.607-66.607c-7.849-7.849-18.406-12.172-29.727-12.172c-10.751,0-20.919,3.962-28.632,11.155
			L134.352,254.77c-0.069,0.065-0.137,0.131-0.205,0.198l-30.806,30.806c-1.532,1.532-2.392,3.61-2.392,5.777
			c0,2.167,0.861,4.245,2.392,5.777l6.52,6.52c-0.88,12.592-6.237,58.234-38.17,90.167l-23.109,23.109
			c-3.191,3.191-3.191,8.364,0,11.554l1.934,1.934L2.392,478.754c-2.337,2.337-3.034,5.851-1.769,8.903
			c1.265,3.052,4.244,5.043,7.549,5.043l76.995-0.01c2.166,0,4.244-0.862,5.776-2.393l9.629-9.629l1.931,1.931
			c1.596,1.596,3.686,2.393,5.778,2.393c2.091,0,4.182-0.797,5.778-2.393l23.11-23.109c31.817-31.817,77.575-37.256,90.174-38.162
			l6.633,6.633c1.533,1.533,3.61,2.393,5.778,2.393s4.244-0.861,5.778-2.393l30.805-30.806c0.068-0.068,0.133-0.135,0.197-0.205
			l224.317-240.512C516.105,140.077,515.65,113.898,499.831,98.079z M386.01,42.406c4.677-4.362,10.887-6.764,17.488-6.764
			c6.957,0,13.41,2.623,18.172,7.385l1.74,1.74L309.344,151.151c-3.3,3.077-3.479,8.248-0.402,11.547
			c1.609,1.726,3.79,2.598,5.976,2.598c1.996,0,3.996-0.727,5.57-2.195L434.97,56.328l40.006,40.006L239.523,348.788l-57.008-57.008
			l114.072-106.39c3.3-3.077,3.479-8.248,0.402-11.547c-3.077-3.301-8.247-3.482-11.547-0.403L170.954,280.219l-19.27-19.27
			L386.01,42.406z M81.782,476.351l-53.889,0.007l34.178-34.189l26.947,26.947L81.782,476.351z M125.612,447.937l-17.332,17.332
			l-1.921-1.921c-0.021-0.021-38.508-38.508-38.508-38.508c-0.011-0.011-1.937-1.937-1.937-1.937l11.554-11.555l25.035,25.035
			c1.596,1.595,3.688,2.393,5.778,2.393c2.091,0,4.182-0.797,5.778-2.393c3.191-3.191,3.191-8.364,0-11.554l-25.223-25.223
			c24.085-27.414,32.715-60.833,35.807-80.975l87.909,87.909C190.924,409.859,153.984,419.565,125.612,447.937z M239.752,410.629
			l-119.08-119.079l19.252-19.252l119.079,119.079L239.752,410.629z M488.898,145.293L270.353,379.618l-19.269-19.269
			l235.452-252.455l1.74,1.74C497.942,119.3,498.221,135.296,488.898,145.293z"/>
	</g>
</g>
<g>
</g>
<g>
</g>
<g>
</g>
<g>
</g>
<g>
</g>
<g>
</g>
<g>
</g>
<g>
</g>
<g>
</g>
<g>
</g>
<g>
</g>
<g>
</g>
<g>
</g>
<g>
</g>
<g>
</g>
</svg>
